#!OML:ASF X:\für Bonn\!DataBase\2005_08_10_Bjorn_Final\c3d\bjorn.ASF
:FULLY-SPECIFIED
:DEGREES
108
root 0.537131 9.8895 3.71307 -183.987 -4.9687 177.828
lowerback 30.5342 1.5613 3.44216
upperback 13.8366 -1.08092 0.119878
thorax -1.04817 -2.01806 -1.48701
lowerneck -22.9262 -2.28515 2.01877
upperneck -9.10937 -5.69718 1.00181
head 0.811368 -3.8221 -0.45444
rclavicle 2.38542e-015 9.14409e-015
rhumerus 80.7227 -3.36656 -74.2888
rradius 5.96274
rwrist 49.3191
rhand -12.373 9.12769
rfingers 7.12502
rthumb 13.6976 -20.4015
lclavicle 2.38542e-015 9.14409e-015
lhumerus 81.7159 -5.95973 48.7713
lradius 11.7703
lwrist -34.7199
lhand -19.2049 -10.182
lfingers 7.12502
lthumb 7.10734 19.6787
rfemur -72.0671 -51.1309 1.23786
rtibia 140.479
rfoot -37.7153 50.439
rtoes -22.4152
lfemur -75.3316 33.1038 -18.7054
ltibia 142.445
lfoot -33.7255 -18.9165
ltoes -32.9487
109
root 0.537636 10.067 3.72076 -183.341 -5.02536 177.794
lowerback 30.2027 1.4975 3.46843
upperback 13.7348 -1.08823 0.1155
thorax -1.02053 -1.98876 -1.50892
lowerneck -22.7781 -2.35354 1.98281
upperneck -9.40133 -5.80818 1.09816
head 0.689836 -3.89499 -0.413537
rclavicle 1.27222e-014 -1.19271e-015
rhumerus 80.6178 -3.32758 -74.2638
rradius 6.07133
rwrist 49.3241
rhand -12.5034 9.09917
rfingers 7.12502
rthumb 13.5718 -20.4385
lclavicle 1.27222e-014 -1.19271e-015
lhumerus 81.5409 -5.84523 49.659
lradius 11.773
lwrist -36.2557
lhand -19.5647 -10.2002
lfingers 7.12502
lthumb 6.76001 19.6719
rfemur -72.8738 -46.777 3.25716
rtibia 139.187
rfoot -36.6837 47.8217
rtoes -23.3492
lfemur -75.4297 29.7959 -19.4168
ltibia 141.136
lfoot -32.7403 -17.8449
ltoes -32.543
110
root 0.537905 10.2483 3.72824 -182.686 -5.11152 177.777
lowerback 29.8712 1.40999 3.5293
upperback 13.598 -1.10301 0.105595
thorax -1.03215 -1.95707 -1.5533
lowerneck -22.5044 -2.42165 1.9841
upperneck -9.73496 -5.91676 1.18912
head 0.533892 -3.96612 -0.375448
rclavicle 4.17448e-015 -1.31198e-014
rhumerus 80.4894 -3.31044 -74.2429
rradius 6.34422
rwrist 49.5258
rhand -12.4036 9.02932
rfingers 7.12502
rthumb 13.668 -20.5019
lclavicle 4.17448e-015 -1.31198e-014
lhumerus 81.3629 -5.76578 50.5446
lradius 11.767
lwrist -37.7498
lhand -19.989 -10.191
lfingers 7.12502
lthumb 6.35043 19.6939
rfemur -73.355 -42.7299 4.87298
rtibia 137.856
rfoot -35.582 45.4515
rtoes -23.7742
lfemur -75.4689 26.8454 -19.9738
ltibia 139.793
lfoot -31.8763 -16.9054
ltoes -32.0659
111
root 0.538975 10.4331 3.73435 -182.046 -5.19171 177.722
lowerback 29.5248 1.3463 3.55615
upperback 13.4849 -1.10634 0.0957275
thorax -1.00887 -1.92411 -1.58275
lowerneck -22.312 -2.49741 1.9657
upperneck -10.0024 -6.02981 1.27375
head 0.414455 -4.03644 -0.340254
rclavicle -1.35174e-014 3.97569e-016
rhumerus 80.4252 -3.33074 -74.2082
rradius 6.59822
rwrist 49.6957
rhand -12.5829 8.96766
rfingers 7.12502
rthumb 13.4952 -20.5751
lclavicle -1.35174e-014 3.97569e-016
lhumerus 81.2529 -5.66842 51.2306
lradius 11.7751
lwrist -38.8989
lhand -20.3407 -10.1954
lfingers 7.12502
lthumb 6.01087 19.6994
rfemur -73.5474 -39.0873 6.11702
rtibia 136.484
rfoot -34.7346 43.2624
rtoes -23.9984
lfemur -75.3897 24.2194 -20.4533
ltibia 138.398
lfoot -31.1365 -15.9669
ltoes -31.8022
112
root 0.540447 10.6201 3.73902 -181.458 -5.28178 177.685
lowerback 29.1986 1.26891 3.56552
upperback 13.3564 -1.12895 0.102575
thorax -1.01238 -1.90248 -1.57725
lowerneck -22.0496 -2.55096 1.99758
upperneck -10.2619 -6.11595 1.30623
head 0.284842 -4.09273 -0.32612
rclavicle 1.90833e-014 1.35174e-014
rhumerus 80.3787 -3.29477 -74.1701
rradius 6.80465
rwrist 49.8724
rhand -12.8004 8.90932
rfingers 7.12502
rthumb 13.2856 -20.6472
lclavicle 1.90833e-014 1.35174e-014
lhumerus 81.0769 -5.53064 52.0575
lradius 11.9032
lwrist -39.3872
lhand -20.0812 -10.4765
lfingers 7.12502
lthumb 6.26146 19.411
rfemur -73.4643 -35.8105 7.1037
rtibia 135.07
rfoot -34.1621 41.1902
rtoes -24.2546
lfemur -75.1851 21.9563 -20.7772
ltibia 136.983
lfoot -30.4672 -15.2827
ltoes -31.3015
113
root 0.541573 10.8104 3.74341 -180.909 -5.37196 177.65
lowerback 28.8707 1.19623 3.59722
upperback 13.2379 -1.14495 0.105713
thorax -1.00181 -1.87804 -1.59106
lowerneck -21.7845 -2.60001 2.10559
upperneck -10.4781 -6.20665 1.25188
head 0.165305 -4.15108 -0.35314
rclavicle -1.19271e-015 -2.78299e-015
rhumerus 80.3447 -3.28928 -74.1296
rradius 6.97417
rwrist 50.0419
rhand -13.0735 8.86682
rfingers 7.12502
rthumb 13.0224 -20.7067
lclavicle -1.19271e-015 -2.78299e-015
lhumerus 80.96 -5.42912 52.6637
lradius 11.9997
lwrist -39.444
lhand -19.719 -10.8044
lfingers 7.12502
lthumb 6.61108 19.0724
rfemur -73.228 -32.8158 7.90757
rtibia 133.617
rfoot -33.6309 39.3082
rtoes -24.2903
lfemur -74.8592 19.9641 -21.0145
ltibia 135.524
lfoot -29.8384 -14.7376
ltoes -30.6414
114
root 0.542546 11.0026 3.74712 -180.37 -5.4665 177.615
lowerback 28.4969 1.11904 3.65106
upperback 13.1311 -1.16512 0.0877717
thorax -0.956473 -1.85359 -1.64101
lowerneck -21.4616 -2.63678 2.29471
upperneck -10.7217 -6.29535 1.17318
head 0.0252546 -4.21126 -0.398114
rclavicle 2.5842e-014 1.66979e-014
rhumerus 80.3668 -3.32925 -74.1177
rradius 7.07355
rwrist 50.2156
rhand -13.3413 8.84795
rfingers 7.12502
rthumb 12.7642 -20.7419
lclavicle 2.5842e-014 1.66979e-014
lhumerus 80.9314 -5.34686 52.943
lradius 11.997
lwrist -39.159
lhand -19.443 -11.1474
lfingers 7.12502
lthumb 6.87753 18.7208
rfemur -72.9313 -30.1626 8.60313
rtibia 132.138
rfoot -33.2602 37.5045
rtoes -24.3723
lfemur -74.5172 18.1784 -21.23
ltibia 134.04
lfoot -29.2986 -14.1259
ltoes -30.3183
115
root 0.544387 11.1966 3.74888 -179.831 -5.57107 177.581
lowerback 28.1186 1.04662 3.67569
upperback 13.0214 -1.18629 0.09638
thorax -0.911359 -1.83223 -1.64503
lowerneck -21.1764 -2.67885 2.45088
upperneck -10.9178 -6.38058 1.08385
head -0.0920283 -4.26603 -0.442771
rclavicle 5.1684e-015 -2.14687e-014
rhumerus 80.4452 -3.33205 -74.0759
rradius 7.11126
rwrist 50.4152
rhand -13.605 8.78048
rfingers 7.12502
rthumb 12.5099 -20.8251
lclavicle 5.1684e-015 -2.14687e-014
lhumerus 80.9005 -5.20265 53.2608
lradius 12.0523
lwrist -38.9864
lhand -19.5005 -11.3051
lfingers 7.12502
lthumb 6.82206 18.565
rfemur -72.5413 -27.8068 9.18632
rtibia 130.625
rfoot -32.9397 35.9197
rtoes -24.2542
lfemur -74.1453 16.5722 -21.402
ltibia 132.534
lfoot -28.7804 -13.6145
ltoes -29.9042
116
root 0.545614 11.3913 3.74869 -179.319 -5.66802 177.531
lowerback 27.7601 0.970469 3.70276
upperback 12.9163 -1.21654 0.091693
thorax -0.869582 -1.81667 -1.66229
lowerneck -20.972 -2.72239 2.5744
upperneck -11.0272 -6.45523 1.03161
head -0.165599 -4.30911 -0.474365
rclavicle -3.97569e-016 1.27222e-014
rhumerus 80.5789 -3.3509 -74.0449
rradius 7.09304
rwrist 50.5491
rhand -13.8205 8.71952
rfingers 7.12502
rthumb 12.3022 -20.8986
lclavicle -3.97569e-016 1.27222e-014
lhumerus 80.8558 -4.98001 53.9783
lradius 12.1049
lwrist -39.5604
lhand -19.6874 -11.1521
lfingers 7.12502
lthumb 6.64156 18.7238
rfemur -72.0652 -25.7336 9.65037
rtibia 129.092
rfoot -32.6559 34.4933
rtoes -24.0278
lfemur -73.6927 15.1606 -21.5567
ltibia 131
lfoot -28.2924 -13.1504
ltoes -29.4299
117
root 0.546762 11.5879 3.74711 -178.795 -5.76877 177.482
lowerback 27.3926 0.892218 3.74982
upperback 12.7955 -1.23934 0.071348
thorax -0.840169 -1.79396 -1.70993
lowerneck -20.9101 -2.80583 2.64062
upperneck -10.9401 -6.55135 1.07532
head -0.147505 -4.34635 -0.477407
rclavicle -1.35174e-014 1.59028e-015
rhumerus 80.7208 -3.37633 -74.029
rradius 7.18543
rwrist 50.7452
rhand -13.5764 8.63706
rfingers 7.12502
rthumb 12.5375 -20.9668
lclavicle -1.35174e-014 1.59028e-015
lhumerus 80.87 -4.79936 54.4891
lradius 12.0858
lwrist -39.9665
lhand -19.8992 -10.9068
lfingers 7.12502
lthumb 6.43712 18.9754
rfemur -71.5649 -23.874 10.0605
rtibia 127.533
rfoot -32.4594 33.1598
rtoes -23.9162
lfemur -73.2523 13.8788 -21.696
ltibia 129.452
lfoot -27.7914 -12.7858
ltoes -28.7761
118
root 0.547888 11.7862 3.74243 -178.306 -5.84929 177.471
lowerback 27.0157 0.817731 3.80646
upperback 12.6895 -1.26275 0.0767612
thorax -0.787816 -1.77461 -1.73565
lowerneck -20.9442 -2.86661 2.67387
upperneck -10.7501 -6.60678 1.12403
head -0.0788216 -4.35678 -0.477224
rclavicle -6.36111e-015 -2.38542e-014
rhumerus 80.9255 -3.37576 -73.9972
rradius 7.37928
rwrist 50.8438
rhand -12.7977 8.61793
rfingers 7.12502
rthumb 13.2882 -20.9384
lclavicle -6.36111e-015 -2.38542e-014
lhumerus 80.8542 -4.59673 54.9409
lradius 12.077
lwrist -40.2974
lhand -20.1938 -10.5047
lfingers 7.12502
lthumb 6.15275 19.3859
rfemur -70.9797 -22.1469 10.4597
rtibia 125.933
rfoot -32.3231 31.8968
rtoes -23.7114
lfemur -72.7352 12.7874 -21.7579
ltibia 127.874
lfoot -27.3315 -12.4997
ltoes -28.0925
119
root 0.550144 11.9867 3.73565 -177.842 -5.93075 177.423
lowerback 26.6364 0.760258 3.82979
upperback 12.5905 -1.27557 0.0782893
thorax -0.72543 -1.75226 -1.7498
lowerneck -21.0064 -2.95687 2.6738
upperneck -10.4885 -6.68481 1.19057
head 0.0195185 -4.37101 -0.47031
rclavicle -3.45885e-014 -7.95139e-015
rhumerus 81.135 -3.40288 -73.9541
rradius 7.53886
rwrist 50.7533
rhand -12.3553 8.62588
rfingers 7.12502
rthumb 13.7146 -20.9022
lclavicle -3.45885e-014 -7.95139e-015
lhumerus 80.8951 -4.42117 55.2509
lradius 12.0079
lwrist -40.4474
lhand -20.4681 -10.1988
lfingers 7.12502
lthumb 5.88789 19.6994
rfemur -70.3265 -20.5969 10.7754
rtibia 124.293
rfoot -32.2 30.7319
rtoes -23.4666
lfemur -72.158 11.8139 -21.8473
ltibia 126.261
lfoot -26.9348 -12.1547
ltoes -27.7171
